<?xml version="1.0" encoding="utf-8"?>
<!-- Generator: Adobe Illustrator 27.5.0, SVG Export Plug-In . SVG Version: 6.00 Build 0)  -->
<svg version="1.1" id="Layer_1" xmlns="http://www.w3.org/2000/svg" xmlns:xlink="http://www.w3.org/1999/xlink" x="0px" y="0px"
	 viewBox="0 0 425.2 425.2" style="enable-background:new 0 0 425.2 425.2;" xml:space="preserve">
<style type="text/css">
	.st0{fill-rule:evenodd;clip-rule:evenodd;fill:#EFA0A6;}
	.st1{fill:#EFA0A6;}
	.st2{fill:#FFFFFF;}
	.st3{fill:#E92E56;}
</style>
<path class="st0" d="M180.97,143.96c-19.09,5.58-24.65,26.05-18.27,43.3c-14.28-9.35-12.74-30.77-2.98-41.43
	c5.2-5.67,12.72-8.3,21.43-4.45c0.53,0.23,0.84,0.76,0.8,1.34C181.91,143.32,181.53,143.8,180.97,143.96 M208.2,148.47
	c12.29,10.2,14.22,29.36,0.08,37.05c-4.38,2.39-9.69,3.5-14.14,3.78c-0.63,0.04-1.14,0.5-1.25,1.13c-0.11,0.63,0.2,1.23,0.78,1.49
	c5.94,2.66,16.29,5.45,26.02-0.88c17.07-11.12,14.55-46.13-10.67-45c-0.57,0.03-1.05,0.39-1.23,0.94
	C207.59,147.52,207.76,148.1,208.2,148.47z M146.43,170.12c-0.18,17.65,17.57,31.2,34.27,31.91c-20.45,13.29-52.85-8.63-36.74-32.68
	c0.34-0.51,0.94-0.72,1.52-0.55C146.06,168.98,146.44,169.51,146.43,170.12z M195.17,221.35c-5.25-2.29-9.88-5.83-13.31-10.45
	c-0.39-0.53-1.08-0.69-1.67-0.4c-5.15,2.57-10.88,3.64-16.6,3.31c-0.53-0.03-1.01,0.23-1.27,0.71c-0.26,0.47-0.23,1.02,0.08,1.46
	c3.48,4.92,8.66,8.63,14.94,10.13c6.28,1.5,12.58,0.53,17.91-2.3c0.47-0.25,0.75-0.73,0.73-1.27
	C195.96,222.01,195.66,221.56,195.17,221.35z M230.53,190.18c-7.81,15.83-29.76,19.91-44.98,13.01
	c12.25,21.09,51.05,16.15,47.53-12.58c-0.07-0.61-0.51-1.07-1.11-1.17C231.38,189.33,230.8,189.63,230.53,190.18z M187.44,197.81
	c-13.99-4.1-24.35-14.87-20.84-29.6c3.2-13.41,13.27-22.12,27.21-20.34c18.19,2.33,22.5,24.92,10.4,33.6
	c-0.51,0.36-1.16,0.34-1.64-0.05c-0.48-0.4-0.62-1.05-0.37-1.62c3.23-7.21-1.56-15.74-10.11-17.28
	c-16.72-3.01-19.55,20.57-3.46,32.88c0.52,0.4,0.68,1.11,0.39,1.71C188.73,197.7,188.07,197.99,187.44,197.81z M193.12,181.42
	c-11-1.73-10.38-9.8-5.18-11.96c4.82-2,10.93,2.08,6.61,11.19C194.29,181.21,193.72,181.52,193.12,181.42z"/>
<path class="st1" d="M166.29,256.16c-0.35-0.35-0.58-0.47-0.64-0.65c-2.96-8.51-9.61-13.02-17.51-16.16
	c-4.31-1.71-8.73-3.19-12.96-5.07c-2.11-0.94-4.07-2.38-5.82-3.91c-1.83-1.61-2.59-3.85-2.32-6.71c3.69,0.71,7.29,1.22,10.85,0.2
	c-11.1-3.94-19.82-9.98-21.11-22.78c-1.01-10.04,3.35-17.74,11.11-24.12c0.29,0.6,0.5,0.9,0.59,1.24c2.64,9.42,6.92,18,13.08,25.61
	c3.58,4.42,7.29,8.73,10.89,13.14c5.01,6.13,9.95,12.31,12.53,19.96C167.08,243.14,167.34,249.48,166.29,256.16z"/>
<path class="st1" d="M244.35,204.9c3.63,8.33,4.21,16.51-0.06,24.79c-4.68,9.06-15.34,14.95-30.63,12.01
	c3.1,3.01,6.69,3.89,10.29,5.16c-1.33,3.07-3.55,4.9-6.55,5.29c-2.98,0.39-6.06,0.36-9.07,0.19c-5.23-0.3-10.45-1.09-15.68-1.22
	c-6.54-0.17-12.45,1.83-17.28,6.46c-0.22,0.21-0.36,0.5-0.77,0.5c1.34-5.33,3.74-9.96,7.16-14.07c5.31-6.39,12.39-10.22,19.8-13.51
	c6.03-2.68,12.27-4.89,18.2-7.77c4.48-2.18,8.81-4.82,12.84-7.76C236.63,212.04,240.21,208.49,244.35,204.9z"/>
<path class="st2" d="M175.25,236.22c0.08-0.08,0.15-0.17,0.23-0.25c-0.11-0.02-0.21-0.05-0.32-0.07
	C175.18,236,175.22,236.11,175.25,236.22z"/>
<path class="st3" d="M101.57,188.39c-4.96,0.99-10.01,1.53-15.04,2.11c-2.29,0.26-4.53-0.25-6.66-1.53
	c1.88-3.74,3.66-7.35,5.5-10.94c6.44-12.57,13.08-25.03,21.42-36.47c3.28-4.5,7.13-8.57,10.8-12.77c0.9-1.03,2.04-1.88,3.18-2.65
	c3.41-2.31,6.84-4.67,11.23-2.54c0.67-2.38-0.09-5.39-2.24-7.37c-5.47-5.01-12.4-7.48-19.18-3.06c-3.39,2.21-6.59,4.87-9.39,7.79
	c-5.53,5.75-10.37,12.08-13.47,19.52c-0.76,1.82-1.08,3.85-1.39,5.82c-0.36,2.31-0.03,4.83-0.82,6.95
	c-2.68,7.16-5.68,14.21-8.65,21.26c-1.48,3.53-3.15,6.98-4.75,10.48c-3.48-2.25-7.06-3.56-10.8-1.35c-2.92,1.72-3.41,4.78-3.04,7.91
	c0.54,4.49,4.11,5.37,7.99,6.16c-0.46,1.12-0.83,2.02-1.2,2.91c-5.56,13.47-11.26,26.89-15.37,40.89c-1.58,5.39-2.55,10.97-3.6,16.5
	c-0.41,2.17,0.55,3.56,2.62,4.31c1.61,0.58,3.34,0.84,5.01,1.27c2.78,0.71,5.18-0.05,7.08-2.1c1.99-2.15,4.05-4.29,5.65-6.72
	c3.25-4.95,6.21-10.08,9.27-15.15c0.38-0.63,0.73-1.34,0.86-2.06c0.1-0.55-0.18-1.16-0.29-1.75c-0.53,0.15-1.1,0.21-1.57,0.47
	c-0.44,0.24-0.83,0.63-1.15,1.03c-1.58,1.98-3.1,4.01-4.7,5.97c-1.89,2.31-3.76,4.65-5.8,6.82c-1.09,1.16-2.62,1.8-4.26,1
	c-1.58-0.77-1.97-2.34-1.74-3.84c0.46-2.94,0.95-5.92,1.87-8.74c4.37-13.44,10.27-26.27,16.13-39.1c0.28-0.62,0.95-1.62,1.26-1.56
	c0.72,0.15,1.56,0.69,1.95,1.32c2.64,4.26,5.26,8.53,7.72,12.9c9.41,16.72,18.94,33.37,30.75,48.58c6.75,8.7,13.35,17.5,21.57,24.92
	c11.99,10.83,25.48,18.97,41.38,22.61c10.22,2.34,20.31,2.5,30.03-2.35c7.15-3.57,12.27-8.63,14.51-16.58
	c2.12-7.53,2.85-15.02,1.15-22.68c-0.25-1.13-0.85-2.3-1.62-3.14c-0.5-0.53-1.74-0.82-2.43-0.59c-0.52,0.18-0.93,1.36-0.95,2.1
	c-0.04,1.19,0.3,2.39,0.46,3.59c1.57,12.12-5.59,22.83-17.33,25.38c-5.57,1.21-11.29,1.58-16.99,0.44
	c-15.19-3.05-28.58-10.02-40.5-19.62c-9.52-7.66-18.06-16.44-25.65-26.07c-13.04-16.53-24.55-34.13-36.35-51.54
	c-0.17-0.24-0.19-0.58-0.31-0.97c0.9-0.05,1.64-0.1,2.38-0.14c7-0.4,13.93-1.13,20.78-2.24c0.3-2.38,0.85-4.68,1.63-6.92
	C106.21,187.41,103.9,187.92,101.57,188.39z"/>
<path class="st3" d="M190.81,137.62c0.21,0,0.41,0.01,0.62,0.02c0.96-4.66,1.07-9.55,0.18-14.67c-3.03-17.47-14.25-28.49-30.67-34
	c-20.68-6.93-41.96-8.01-63.49-4.95c-21.77,3.09-41.19,11.36-57.7,26.07c-6.95,6.19-12.99,13.09-16.29,21.99
	c-1.25,3.38-2.18,6.81-1.38,10.47c0.12,0.54,0.06,1.15-0.02,1.71c-1.58,12.34,5.74,24.57,17.41,28.97c1.44,0.54,2.98,0.92,4.51,1.07
	c0.69,0.07,1.9-0.47,2.08-1.01c0.23-0.66-0.13-1.84-0.66-2.37c-0.96-0.96-2.21-1.63-3.38-2.37c-2.44-1.53-5.01-2.88-7.32-4.58
	c-4.25-3.12-6.62-7.42-6.37-12.74c0.4-8.51,3.66-16.03,8.96-22.59c8.32-10.28,18.99-17.38,31.21-22.18
	c23.44-9.2,47.78-12.63,72.85-10.92c9.35,0.64,18.55,2.09,27.17,6.05c7.51,3.45,13.47,8.49,16.09,16.61
	c1.6,4.95,1.96,9.71,1.18,14.27C188.01,133.64,189.75,135.46,190.81,137.62z"/>
<path class="st3" d="M340.53,260.61c-4.54-0.12-9.23-0.61-13.6-2.63c-8.85-4.08-13.58-11-13.75-20.78
	c-0.2-11.4,3.43-21.68,9.96-30.89c10.15-14.29,23.01-25.71,38.09-34.6c4.45-2.62,9.24-4.43,14.56-4.33c7,0.13,11.4,3.86,12.41,10.77
	c0.93,6.35,0.12,12.31-3.54,17.86c-3.6,5.47-7.85,10.26-13.18,14.01c-8.48,5.97-17.46,10.98-27.8,13.01
	c-1.29,0.25-2.63,0.32-3.95,0.29c-1.29-0.03-2.1-0.78-2.33-2.12c-0.19-1.06,0.18-1.74,1.24-1.86c6.73-0.78,12.13-4.47,17.57-8.04
	c8.09-5.3,15.57-11.32,21.35-19.2c2.29-3.12,3.71-6.61,3.94-10.53c0.25-4.22-2-6.37-5.95-4.9c-3.95,1.47-7.84,3.42-11.29,5.83
	c-10.48,7.32-18.59,16.98-25.8,27.41c-5.15,7.45-9.14,15.48-11.16,24.36c-0.57,2.51-0.9,5.12-0.95,7.69
	c-0.15,7.83,5.61,13.22,13.62,12.93c6.86-0.25,13.01-2.82,18.99-5.89c17.28-8.89,30.67-21.84,40.26-38.73
	c0.2-0.35,0.33-0.83,0.64-1.01c0.66-0.39,1.53-1.02,2.1-0.85c1.1,0.33,1.78,1.31,1.28,2.6c-0.31,0.8-0.72,1.57-1.13,2.33
	c-9.39,17.52-22.32,31.68-39.75,41.46C355.7,258.56,348.46,260.56,340.53,260.61z"/>
<path class="st3" d="M317.15,146.53c-5.37-1.32-10.77-1.07-16.07,0.29c-13.18,3.4-24.23,10.51-33.77,20.03
	c-4.73,4.72-8.03,10.37-9.6,16.93c-0.47,1.95-0.67,4-1.34,5.88c-0.05,0.12-0.09,0.25-0.14,0.37l2.03,7.93
	c0.02-0.04,0.04-0.08,0.06-0.12c1.59,3.81,3.89,6.68,6.81,8.96c2.49,1.94,5.2,3.61,7.86,5.33c3.69,2.39,7.29,4.86,10.03,8.38
	c1.53,1.97,2.67,4.16,2.22,6.7c-0.61,3.43-0.97,7.05-2.36,10.17c-4.93,11.08-13.3,19.1-23.81,24.88c-2.47,1.36-5.34,2.09-8.1,2.81
	c-2.26,0.59-4.01-0.58-5.28-2.45c-1.2-1.77-0.81-3.56,0.16-5.21c1.87-3.18,3.77-6.38,7.35-8.01c0.31-0.14,0.71-0.35,0.81-0.62
	c0.24-0.69,0.33-1.42,0.48-2.14c-0.67-0.06-1.52-0.41-1.97-0.12c-3.22,2-6.68,3.79-9.41,6.34c-2.28,2.13-4.09,5.02-5.38,7.89
	c-2.07,4.58,1.69,10.06,6.72,10.31c1.49,0.07,3.01,0.08,4.48-0.14c13.79-2.04,26.18-7.22,36.45-16.82
	c5.1-4.76,9.29-10.27,11.41-17.05c1.63-5.21,1.66-10.34-2.44-14.54c-2.64-2.7-5.49-5.24-8.49-7.55c-2.82-2.17-5.99-3.88-8.95-5.88
	c-2.86-1.94-5.75-3.85-8.41-6.04c-2.76-2.27-4.06-5.42-3.23-8.97c0.61-2.65,1.46-5.37,2.82-7.7c7.12-12.16,17.71-20.43,30.32-26.31
	c5.35-2.5,10.82-4.59,16.86-4.54c3.72,0.03,5.66,2.08,5.3,5.81c-0.32,3.32-1.32,6.41-3.5,9.05c-0.69,0.83-1.41,1.77-1.69,2.77
	c-0.23,0.79,0.19,1.77,0.32,2.67c0.82-0.18,1.83-0.11,2.44-0.56c4.69-3.49,7.49-8.19,8.56-13.93
	C328.04,153.99,324.44,148.32,317.15,146.53z"/>
</svg>
